<svg width="312" height="37" viewBox="0 0 312 37" fill="none" xmlns="http://www.w3.org/2000/svg">
<path d="M3.69884 9.79447C3.25632 9.60115 2.84595 9.33958 2.48215 9.0189C0.904546 11.746 0.0500936 14.8421 0.0021304 18.005C-0.045753 21.168 0.714273 24.2896 2.2086 27.0646C2.556 26.7158 2.95128 26.4199 3.38193 26.1868C2.05213 23.6521 1.3827 20.8133 1.43831 17.9412C1.49359 15.0691 2.27195 12.2594 3.69884 9.77948V9.79447ZM17.9883 2.24134e-05C15.1277 -0.00454945 12.3081 0.690366 9.76738 2.02629C10.073 2.41392 10.316 2.84856 10.4872 3.31355C12.8068 2.09844 15.3784 1.46392 17.9883 1.46292C21.3552 1.46129 24.6425 2.50272 27.4123 4.44832C30.1818 6.39392 32.3016 9.15143 33.4893 12.353C34.6768 15.5543 34.8757 19.0475 34.0594 22.3673C33.2428 25.6865 31.4499 28.6739 28.9197 30.9312C26.3893 33.1884 23.2421 34.6079 19.8972 35.0008C16.5528 35.3937 13.1698 34.7409 10.1993 33.1299C9.97431 33.5669 9.68798 33.9682 9.34992 34.3222C12.5691 36.1164 16.2516 36.8668 19.9027 36.473C23.5537 36.0795 26.9991 34.5603 29.7758 32.1197C32.5531 29.679 34.5291 26.4336 35.439 22.8193C36.3485 19.2046 36.1485 15.3937 34.8656 11.8979C33.5827 8.40213 31.2783 5.38898 28.2613 3.26214C25.2446 1.13555 21.6598 -0.00248565 17.9883 0.000774709L17.9883 2.24134e-05Z" fill="#FACC15"/>
<path d="M27.6056 23.2614C26.1286 26.2128 23.4185 28.3286 20.2312 29.0186C17.0442 29.7086 13.7206 28.8994 11.1881 26.8159C8.6551 24.7328 7.18321 21.5985 7.18321 18.2872C7.18321 14.9758 8.6551 11.8415 11.1881 9.75839C13.7208 7.67494 17.0444 6.8657 20.2312 7.55573C23.4185 8.24574 26.1286 10.3615 27.6056 13.3129C27.9919 13.2153 28.3884 13.1663 28.7863 13.1666C28.9062 13.1595 29.0264 13.1595 29.1463 13.1666C27.5983 9.68549 24.562 7.12076 20.9111 6.21028C17.26 5.29947 13.4001 6.14465 10.4422 8.50207C7.48407 10.8591 5.75641 14.4673 5.75641 18.2873C5.75641 22.1074 7.48407 25.7153 10.4422 28.0726C13.4001 30.43 17.26 31.2752 20.9111 30.3644C24.5618 29.4539 27.598 26.8892 29.1463 23.408C29.0264 23.4152 28.9062 23.4152 28.7863 23.408C28.3885 23.4083 27.9919 23.3594 27.6056 23.2617V23.2614Z" fill="#FACC15"/>
<path d="M7.78766 7.19039C7.24713 7.73901 6.51438 8.04694 5.7505 8.04627C5.48056 8.04627 5.21189 8.00937 4.95159 7.93655C4.48528 7.8007 4.05979 7.54958 3.71335 7.20506C3.01855 6.45822 2.7605 5.3959 3.03302 4.40642C3.30554 3.41661 4.06912 2.64499 5.04443 2.37329C6.01949 2.10159 7.06358 2.3697 7.79504 3.07931C7.83007 3.11229 7.86156 3.14919 7.88855 3.18903C8.22245 3.55805 8.45576 4.00967 8.56503 4.49853C8.77392 5.4717 8.48084 6.48592 7.78765 7.19033L7.78766 7.19039Z" fill="#FACC15"/>
<path d="M8.357 31.9591C8.15582 32.4143 7.83735 32.8058 7.43566 33.0928C6.69009 33.6339 5.73531 33.7825 4.8644 33.4922C3.99382 33.2022 3.3109 32.5082 3.02551 31.6236C2.73981 30.7386 2.88604 29.7685 3.41854 29.0108C3.95939 28.2493 4.82675 27.7976 5.75105 27.7967C6.73409 27.798 7.64868 28.3091 8.17669 29.1519C8.70437 29.9951 8.77218 31.0535 8.35697 31.959L8.357 31.9591Z" fill="#FACC15"/>
<path d="M31.6656 18.2873C31.664 18.8568 31.4992 19.4133 31.191 19.8887C30.8828 20.3642 30.4451 20.7381 29.9309 20.9644C29.571 21.1296 29.1809 21.2142 28.7862 21.2132C28.6593 21.2243 28.5317 21.2243 28.4048 21.2132C27.4818 21.0796 26.6797 20.5003 26.2523 19.6584C25.8245 18.8166 25.8245 17.8163 26.2523 16.9747C26.6797 16.1329 27.4818 15.5532 28.4048 15.4196C28.5301 15.3889 28.6577 15.3693 28.7862 15.3612C29.1809 15.3602 29.571 15.4448 29.9309 15.61C30.4451 15.8363 30.8828 16.2102 31.191 16.6857C31.4992 17.1612 31.664 17.7176 31.6656 18.2871V18.2873Z" fill="#FACC15"/>
<path d="M23.7472 18.2873C23.7459 18.7382 23.6928 19.1876 23.5887 19.6259C23.1542 21.5055 21.8354 23.0462 20.0636 23.7438C18.292 24.4413 16.2959 24.2062 14.7283 23.1155C13.1606 22.0244 12.2236 20.2179 12.2236 18.2873C12.2236 16.3567 13.1607 14.5502 14.7283 13.4591C16.2959 12.3684 18.2919 12.1333 20.0636 12.8308C21.8353 13.5284 23.1542 15.069 23.5887 16.9487C23.6928 17.387 23.7459 17.8363 23.7472 18.2873V18.2873Z" fill="#FACC15"/>
<path d="M60.596 27.3692C59.14 27.3692 57.74 27.1358 56.396 26.6692C55.0707 26.1838 54.044 25.5678 53.316 24.8212L54.128 23.2252C54.8187 23.8972 55.7427 24.4665 56.9 24.9332C58.076 25.3812 59.308 25.6052 60.596 25.6052C61.828 25.6052 62.8267 25.4558 63.592 25.1572C64.376 24.8398 64.9453 24.4198 65.3 23.8972C65.6733 23.3745 65.86 22.7958 65.86 22.1612C65.86 21.3958 65.636 20.7798 65.188 20.3132C64.7587 19.8465 64.1893 19.4825 63.48 19.2212C62.7707 18.9412 61.9867 18.6985 61.128 18.4932C60.2693 18.2878 59.4107 18.0732 58.552 17.8492C57.6933 17.6065 56.9 17.2892 56.172 16.8972C55.4627 16.5052 54.884 15.9918 54.436 15.3572C54.0067 14.7038 53.792 13.8545 53.792 12.8092C53.792 11.8385 54.044 10.9518 54.548 10.1492C55.0707 9.32784 55.864 8.6745 56.928 8.18917C57.992 7.68517 59.3547 7.43317 61.016 7.43317C62.1173 7.43317 63.2093 7.59184 64.292 7.90917C65.3747 8.20784 66.308 8.62784 67.092 9.16917L66.392 10.8212C65.552 10.2612 64.656 9.8505 63.704 9.58917C62.7707 9.32784 61.8653 9.19717 60.988 9.19717C59.812 9.19717 58.8413 9.35584 58.076 9.67317C57.3107 9.9905 56.7413 10.4198 56.368 10.9612C56.0133 11.4838 55.836 12.0812 55.836 12.7532C55.836 13.5185 56.0507 14.1345 56.48 14.6012C56.928 15.0678 57.5067 15.4318 58.216 15.6932C58.944 15.9545 59.7373 16.1878 60.596 16.3932C61.4547 16.5985 62.304 16.8225 63.144 17.0652C64.0027 17.3078 64.7867 17.6252 65.496 18.0172C66.224 18.3905 66.8027 18.8945 67.232 19.5292C67.68 20.1638 67.904 20.9945 67.904 22.0212C67.904 22.9732 67.6427 23.8598 67.12 24.6812C66.5973 25.4838 65.7947 26.1372 64.712 26.6412C63.648 27.1265 62.276 27.3692 60.596 27.3692ZM83.1146 27.3692C80.6132 27.3692 78.6439 26.6505 77.2066 25.2132C75.7692 23.7758 75.0506 21.6478 75.0506 18.8292V7.60117H77.1226V18.7452C77.1226 21.0598 77.6452 22.7678 78.6906 23.8692C79.7359 24.9705 81.2106 25.5212 83.1146 25.5212C85.0372 25.5212 86.5212 24.9705 87.5666 23.8692C88.6119 22.7678 89.1346 21.0598 89.1346 18.7452V7.60117H91.1506V18.8292C91.1506 21.6478 90.4319 23.7758 88.9946 25.2132C87.5759 26.6505 85.6159 27.3692 83.1146 27.3692ZM100.194 27.2012V7.60117H107.53C109.192 7.60117 110.62 7.87184 111.814 8.41317C113.009 8.93584 113.924 9.70117 114.558 10.7092C115.212 11.6985 115.538 12.9025 115.538 14.3212C115.538 15.7025 115.212 16.8972 114.558 17.9052C113.924 18.8945 113.009 19.6598 111.814 20.2012C110.62 20.7425 109.192 21.0132 107.53 21.0132H101.342L102.266 20.0332V27.2012H100.194ZM102.266 20.2012L101.342 19.1932H107.474C109.434 19.1932 110.918 18.7732 111.926 17.9332C112.953 17.0745 113.466 15.8705 113.466 14.3212C113.466 12.7532 112.953 11.5398 111.926 10.6812C110.918 9.8225 109.434 9.39317 107.474 9.39317H101.342L102.266 8.41317V20.2012ZM124.667 16.3652H135.027V18.1292H124.667V16.3652ZM124.891 25.4092H136.679V27.2012H122.819V7.60117H136.259V9.39317H124.891V25.4092ZM144.349 27.2012V7.60117H151.685C153.346 7.60117 154.774 7.87184 155.969 8.41317C157.164 8.93584 158.078 9.70117 158.713 10.7092C159.366 11.6985 159.693 12.9025 159.693 14.3212C159.693 15.7025 159.366 16.8972 158.713 17.9052C158.078 18.8945 157.164 19.6598 155.969 20.2012C154.774 20.7238 153.346 20.9852 151.685 20.9852H145.497L146.421 20.0332V27.2012H144.349ZM157.733 27.2012L152.693 20.0892H154.933L160.001 27.2012H157.733ZM146.421 20.2012L145.497 19.2212H151.629C153.589 19.2212 155.073 18.7918 156.081 17.9332C157.108 17.0745 157.621 15.8705 157.621 14.3212C157.621 12.7532 157.108 11.5398 156.081 10.6812C155.073 9.8225 153.589 9.39317 151.629 9.39317H145.497L146.421 8.41317V20.2012ZM175.895 27.3692C174.421 27.3692 173.058 27.1265 171.807 26.6412C170.557 26.1372 169.474 25.4372 168.559 24.5412C167.645 23.6452 166.926 22.5905 166.403 21.3772C165.899 20.1638 165.647 18.8385 165.647 17.4012C165.647 15.9638 165.899 14.6385 166.403 13.4252C166.926 12.2118 167.645 11.1572 168.559 10.2612C169.493 9.36517 170.585 8.6745 171.835 8.18917C173.086 7.68517 174.449 7.43317 175.923 7.43317C177.342 7.43317 178.677 7.67584 179.927 8.16117C181.178 8.62784 182.233 9.33717 183.091 10.2892L181.775 11.6052C180.973 10.7838 180.086 10.1958 179.115 9.84117C178.145 9.46784 177.099 9.28117 175.979 9.28117C174.803 9.28117 173.711 9.4865 172.703 9.89717C171.695 10.2892 170.818 10.8585 170.071 11.6052C169.325 12.3332 168.737 13.1918 168.307 14.1812C167.897 15.1518 167.691 16.2252 167.691 17.4012C167.691 18.5772 167.897 19.6598 168.307 20.6492C168.737 21.6198 169.325 22.4785 170.071 23.2252C170.818 23.9532 171.695 24.5225 172.703 24.9332C173.711 25.3252 174.803 25.5212 175.979 25.5212C177.099 25.5212 178.145 25.3345 179.115 24.9612C180.086 24.5878 180.973 23.9905 181.775 23.1692L183.091 24.4852C182.233 25.4372 181.178 26.1558 179.927 26.6412C178.677 27.1265 177.333 27.3692 175.895 27.3692ZM190.308 27.2012V7.60117H192.38V25.4092H203.356V27.2012H190.308ZM217.137 27.3692C214.636 27.3692 212.667 26.6505 211.229 25.2132C209.792 23.7758 209.073 21.6478 209.073 18.8292V7.60117H211.145V18.7452C211.145 21.0598 211.668 22.7678 212.713 23.8692C213.759 24.9705 215.233 25.5212 217.137 25.5212C219.06 25.5212 220.544 24.9705 221.589 23.8692C222.635 22.7678 223.157 21.0598 223.157 18.7452V7.60117H225.173V18.8292C225.173 21.6478 224.455 23.7758 223.017 25.2132C221.599 26.6505 219.639 27.3692 217.137 27.3692ZM239.621 27.3692C238.165 27.3692 236.765 27.1358 235.421 26.6692C234.096 26.1838 233.069 25.5678 232.341 24.8212L233.153 23.2252C233.844 23.8972 234.768 24.4665 235.925 24.9332C237.101 25.3812 238.333 25.6052 239.621 25.6052C240.853 25.6052 241.852 25.4558 242.617 25.1572C243.401 24.8398 243.97 24.4198 244.325 23.8972C244.698 23.3745 244.885 22.7958 244.885 22.1612C244.885 21.3958 244.661 20.7798 244.213 20.3132C243.784 19.8465 243.214 19.4825 242.505 19.2212C241.796 18.9412 241.012 18.6985 240.153 18.4932C239.294 18.2878 238.436 18.0732 237.577 17.8492C236.718 17.6065 235.925 17.2892 235.197 16.8972C234.488 16.5052 233.909 15.9918 233.461 15.3572C233.032 14.7038 232.817 13.8545 232.817 12.8092C232.817 11.8385 233.069 10.9518 233.573 10.1492C234.096 9.32784 234.889 8.6745 235.953 8.18917C237.017 7.68517 238.38 7.43317 240.041 7.43317C241.142 7.43317 242.234 7.59184 243.317 7.90917C244.4 8.20784 245.333 8.62784 246.117 9.16917L245.417 10.8212C244.577 10.2612 243.681 9.8505 242.729 9.58917C241.796 9.32784 240.89 9.19717 240.013 9.19717C238.837 9.19717 237.866 9.35584 237.101 9.67317C236.336 9.9905 235.766 10.4198 235.393 10.9612C235.038 11.4838 234.861 12.0812 234.861 12.7532C234.861 13.5185 235.076 14.1345 235.505 14.6012C235.953 15.0678 236.532 15.4318 237.241 15.6932C237.969 15.9545 238.762 16.1878 239.621 16.3932C240.48 16.5985 241.329 16.8225 242.169 17.0652C243.028 17.3078 243.812 17.6252 244.521 18.0172C245.249 18.3905 245.828 18.8945 246.257 19.5292C246.705 20.1638 246.929 20.9945 246.929 22.0212C246.929 22.9732 246.668 23.8598 246.145 24.6812C245.622 25.4838 244.82 26.1372 243.737 26.6412C242.673 27.1265 241.301 27.3692 239.621 27.3692ZM257.778 27.2012V9.39317H250.89V7.60117H266.738V9.39317H259.85V27.2012H257.778ZM274.696 16.3652H285.056V18.1292H274.696V16.3652ZM274.92 25.4092H286.708V27.2012H272.848V7.60117H286.288V9.39317H274.92V25.4092ZM294.379 27.2012V7.60117H301.715C303.376 7.60117 304.804 7.87184 305.999 8.41317C307.193 8.93584 308.108 9.70117 308.743 10.7092C309.396 11.6985 309.723 12.9025 309.723 14.3212C309.723 15.7025 309.396 16.8972 308.743 17.9052C308.108 18.8945 307.193 19.6598 305.999 20.2012C304.804 20.7238 303.376 20.9852 301.715 20.9852H295.527L296.451 20.0332V27.2012H294.379ZM307.763 27.2012L302.723 20.0892H304.963L310.031 27.2012H307.763ZM296.451 20.2012L295.527 19.2212H301.659C303.619 19.2212 305.103 18.7918 306.111 17.9332C307.137 17.0745 307.651 15.8705 307.651 14.3212C307.651 12.7532 307.137 11.5398 306.111 10.6812C305.103 9.8225 303.619 9.39317 301.659 9.39317H295.527L296.451 8.41317V20.2012Z" fill="#FACC15"/>
</svg>
