<?xml version="1.0" standalone="no"?>
<!DOCTYPE svg PUBLIC "-//W3C//DTD SVG 20010904//EN"
 "http://www.w3.org/TR/2001/REC-SVG-20010904/DTD/svg10.dtd">
<svg version="1.0" xmlns="http://www.w3.org/2000/svg"
 width="700.000000pt" height="700.000000pt" viewBox="0 0 700.000000 700.000000"
 preserveAspectRatio="xMidYMid meet">
<metadata>
Created by potrace 1.14, written by Peter Selinger 2001-2017
</metadata>
<g transform="translate(0.000000,700.000000) scale(0.100000,-0.100000)"
fill="#000000" stroke="none">
<path d="M3025 6989 c-431 -44 -792 -144 -1141 -315 l-91 -45 42 -63 c23 -34
52 -88 65 -118 l23 -55 116 54 c148 69 140 66 251 106 220 80 468 137 716 164
86 10 506 10 594 0 92 -10 177 -22 230 -32 520 -102 929 -288 1335 -604 119
-93 370 -337 454 -441 29 -36 60 -74 69 -85 9 -11 45 -60 80 -110 230 -325
406 -720 492 -1105 26 -119 27 -120 55 -315 25 -168 26 -641 1 -760 -2 -11 -7
-40 -10 -65 -3 -25 -8 -56 -11 -70 -2 -13 -7 -42 -11 -65 -8 -55 -64 -286 -75
-306 -4 -9 -10 -27 -13 -40 -7 -39 -62 -192 -106 -296 -161 -377 -369 -684
-659 -973 -133 -133 -155 -153 -266 -242 -78 -62 -289 -208 -301 -208 -4 0
-15 -6 -23 -14 -27 -24 -240 -132 -361 -184 -153 -66 -335 -127 -470 -157
-191 -44 -208 -47 -400 -70 -100 -12 -544 -13 -615 -1 -16 2 -55 8 -85 11 -53
7 -70 10 -120 20 -14 3 -42 7 -62 11 -38 5 -175 39 -282 68 -102 28 -321 114
-444 174 -64 31 -120 58 -123 60 -4 2 -23 -23 -42 -55 -20 -32 -45 -70 -57
-83 -12 -14 -30 -36 -42 -49 -11 -13 -16 -27 -11 -32 12 -12 217 -112 293
-144 36 -14 79 -32 95 -40 163 -73 592 -181 799 -201 34 -3 72 -8 86 -11 14
-2 129 -6 255 -8 209 -3 269 0 445 20 54 6 202 30 250 41 14 3 36 7 50 10 95
19 387 106 465 139 17 7 75 32 130 55 509 216 974 580 1319 1034 271 356 469
767 581 1201 18 72 36 144 39 160 2 17 7 41 10 55 3 14 9 45 12 70 3 25 7 52
10 61 3 9 7 39 9 65 3 27 7 63 10 79 22 134 23 547 1 710 -2 17 -7 57 -11 90
-4 32 -8 67 -10 76 -2 9 -6 32 -9 50 -4 29 -26 140 -42 216 -27 130 -123 414
-197 583 -73 165 -229 453 -279 515 -5 6 -39 53 -75 105 -37 52 -77 106 -88
119 -188 227 -383 420 -565 559 -30 23 -64 49 -75 58 -43 33 -244 163 -331
212 -197 112 -448 219 -664 284 -79 24 -301 77 -350 84 -19 3 -57 9 -85 14
-27 5 -75 12 -105 15 -30 3 -71 8 -90 11 -58 8 -510 11 -585 3z"/>
<path d="M1037 6584 c-1 -1 -22 -4 -47 -7 -102 -13 -200 -61 -281 -137 -166
-156 -217 -397 -128 -608 31 -71 93 -153 155 -202 38 -30 140 -78 194 -90 333
-78 652 177 651 520 0 126 -34 224 -113 328 -71 92 -174 156 -292 182 -54 11
-133 20 -139 14z"/>
<path d="M3178 5925 c-2 -2 -39 -6 -83 -9 -44 -4 -93 -9 -110 -11 -270 -46
-460 -107 -689 -222 -103 -51 -301 -175 -354 -221 -13 -11 -42 -35 -65 -53
-81 -65 -261 -250 -327 -338 -14 -18 -30 -39 -37 -46 -7 -7 -44 -62 -83 -122
-278 -427 -406 -929 -366 -1435 7 -90 14 -149 21 -188 3 -14 8 -41 11 -60 11
-69 44 -199 78 -301 257 -783 916 -1363 1726 -1519 226 -43 548 -45 765 -5
166 30 185 35 315 77 560 181 1038 588 1305 1110 30 58 55 110 55 115 0 4 -39
9 -88 11 -48 2 -105 7 -127 12 -60 14 -60 14 -95 -52 -141 -263 -384 -530
-645 -705 -256 -172 -587 -291 -890 -321 -86 -8 -309 -8 -390 0 -815 83 -1502
671 -1714 1469 -36 133 -49 198 -57 283 -3 33 -7 72 -10 86 -5 29 -5 276 1
337 35 400 199 806 447 1110 262 321 630 561 1018 663 269 71 568 85 839 40
36 -6 67 -13 70 -15 3 -1 22 -6 41 -9 66 -10 237 -66 323 -105 26 -12 68 -30
93 -42 77 -34 237 -133 326 -200 106 -81 263 -233 340 -329 33 -41 66 -83 74
-93 20 -25 106 -163 139 -225 28 -52 30 -53 64 -47 82 16 129 21 184 20 31 0
57 3 57 8 0 18 -112 227 -168 312 -343 524 -905 895 -1502 990 -25 4 -52 9
-60 10 -74 13 -422 29 -432 20z"/>
<path d="M422 5288 c-16 -29 -55 -106 -86 -170 -139 -289 -250 -641 -291 -928
-4 -24 -8 -47 -10 -50 -2 -3 -6 -41 -10 -85 -4 -44 -10 -89 -12 -100 -3 -11
-6 -130 -8 -265 -2 -217 5 -348 28 -520 37 -272 137 -630 244 -870 43 -97 124
-260 129 -260 3 0 19 14 37 30 18 17 57 47 87 67 98 66 94 55 50 141 -109 217
-218 544 -259 777 -6 33 -13 69 -15 80 -2 12 -7 48 -11 80 -4 33 -9 69 -11 80
-23 123 -23 603 0 720 2 11 7 45 12 75 4 30 8 57 9 60 0 3 5 28 9 55 13 85 65
295 98 395 54 166 121 328 199 479 32 63 59 118 59 121 0 4 -25 20 -55 36 -31
16 -78 46 -106 66 -27 21 -51 38 -53 38 -2 0 -17 -24 -34 -52z"/>
<path d="M3190 4713 c-89 -13 -193 -37 -240 -55 -435 -164 -713 -568 -705
-1023 3 -126 10 -178 41 -290 102 -362 393 -645 762 -742 127 -33 343 -37 467
-9 325 76 582 278 725 571 121 248 143 471 76 770 -8 35 -53 149 -81 205 -147
291 -429 500 -760 565 -37 7 -250 13 -285 8z"/>
<path d="M5210 4173 c-231 -41 -422 -237 -446 -457 -3 -28 -7 -55 -8 -61 -3
-9 8 -105 18 -150 26 -124 148 -280 265 -340 148 -74 311 -75 466 -1 378 180
407 713 51 937 -97 61 -241 91 -346 72z"/>
<path d="M925 1884 c-183 -47 -332 -202 -381 -394 -20 -79 -14 -219 12 -295
89 -254 344 -404 604 -355 148 27 298 144 363 281 48 103 61 164 54 273 -8
149 -58 257 -166 363 -120 118 -319 170 -486 127z"/>
</g>
</svg>
